<?xml version="1.0" standalone="no"?>
<!DOCTYPE svg PUBLIC "-//W3C//DTD SVG 20010904//EN"
 "http://www.w3.org/TR/2001/REC-SVG-20010904/DTD/svg10.dtd">
<svg version="1.0" xmlns="http://www.w3.org/2000/svg"
 width="1944.000000pt" height="1078.000000pt" viewBox="0 0 1944.000000 1078.000000"
 preserveAspectRatio="xMidYMid meet">
<metadata>
Created by potrace 1.16, written by Peter Selinger 2001-2019
</metadata>
<g transform="translate(0.000000,1078.000000) scale(0.100000,-0.100000)"
fill="#000000" stroke="none">
<path d="M7110 8105 c0 -3 90 -185 200 -405 l200 -400 830 0 c457 0 830 2 830
5 0 3 -90 185 -200 405 l-200 400 -830 0 c-457 0 -830 -2 -830 -5z"/>
<path d="M10540 8105 c0 -3 90 -185 200 -405 l200 -400 825 0 c454 0 825 2
825 5 0 3 -90 185 -200 405 l-200 400 -825 0 c-454 0 -825 -2 -825 -5z"/>
<path d="M6976 7892 l-96 -192 203 -405 202 -405 96 192 96 193 -202 405 -202
405 -97 -193z"/>
<path d="M8400 7245 c0 -3 42 -88 92 -190 l93 -185 202 0 203 0 95 190 95 190
-390 0 c-214 0 -390 -2 -390 -5z"/>
<path d="M10845 7060 l-95 -190 830 0 830 0 95 190 95 190 -830 0 -830 0 -95
-190z"/>
<path d="M10920 5865 c0 -3 42 -88 92 -190 l93 -185 297 0 296 0 -91 190 -92
190 -297 0 c-164 0 -298 -2 -298 -5z"/>
<path d="M10235 4633 c-352 -663 -639 -1210 -638 -1214 7 -22 198 -369 204
-369 3 0 273 512 599 1138 326 625 610 1169 631 1208 l39 70 -92 187 c-51 103
-94 187 -97 187 -3 0 -294 -543 -646 -1207z"/>
<path d="M10475 4243 c-347 -663 -631 -1210 -633 -1215 -2 -4 146 -8 330 -8
l333 1 555 1125 c305 618 574 1165 597 1214 l42 90 -297 0 -297 0 -630 -1207z"/>
<path d="M9490 4249 c-129 -5 -256 -9 -282 -11 l-48 -3 203 -377 c111 -208
204 -378 207 -378 3 0 89 159 191 353 l187 352 -19 38 -19 37 -93 -2 c-50 0
-198 -5 -327 -9z"/>
<path d="M9081 4119 c-22 -48 -60 -130 -85 -184 -25 -54 -46 -102 -46 -108 0
-19 645 -1206 652 -1199 10 10 168 354 168 365 0 9 -572 1079 -626 1172 l-23
39 -40 -85z"/>
<path d="M9731 2788 c-47 -101 -86 -186 -88 -190 -2 -5 141 -8 319 -8 l323 0
93 185 c50 102 92 187 92 190 0 3 -147 5 -328 5 l-327 0 -84 -182z"/>
</g>
</svg>
