<svg version="1.1" viewBox="92.30536101882615 35.5713 87.63233665559248 81" xmlns:xlink="http://www.w3.org/1999/xlink" xmlns="http://www.w3.org/2000/svg" style="max-height: 500px" width="87.63233665559248" height="81">
<g id="surface1">
<path d="M 0.332031 0 C 89.542969 0 178.753906 0 270.667969 0 C 270.667969 49.5 270.667969 99 270.667969 150 C 181.457031 150 92.246094 150 0.332031 150 C 0.332031 100.5 0.332031 51 0.332031 0 Z M 0.332031 0" style="stroke:none;fill-rule:nonzero;fill:rgb(0%,0%,0%);fill-opacity:1;"/>
<path d="M 98.371094 36.59375 C 122.140625 36.59375 145.914062 36.59375 170.402344 36.59375 C 176.382812 48.5625 176.382812 48.5625 176.246094 49.257812 C 176.136719 49.511719 176.019531 49.761719 175.894531 50.007812 C 175.824219 50.15625 175.75 50.304688 175.671875 50.457031 C 175.59375 50.617188 175.511719 50.777344 175.425781 50.945312 C 175.339844 51.117188 175.253906 51.289062 175.167969 51.460938 C 174.933594 51.929688 174.699219 52.398438 174.464844 52.863281 C 174.222656 53.351562 173.976562 53.84375 173.730469 54.332031 C 173.320312 55.152344 172.910156 55.972656 172.5 56.792969 C 171.96875 57.847656 171.441406 58.902344 170.914062 59.957031 C 170.460938 60.863281 170.007812 61.769531 169.554688 62.675781 C 169.410156 62.964844 169.261719 63.257812 169.117188 63.550781 C 168.886719 64.007812 168.660156 64.464844 168.429688 64.921875 C 168.304688 65.171875 168.179688 65.417969 168.054688 65.667969 C 167.980469 65.816406 167.910156 65.960938 167.832031 66.113281 C 167.769531 66.242188 167.703125 66.371094 167.636719 66.5 C 167.484375 66.789062 167.484375 66.789062 167.34375 66.929688 C 167.050781 66.941406 166.757812 66.945312 166.460938 66.945312 C 166.324219 66.945312 166.324219 66.945312 166.183594 66.945312 C 165.875 66.945312 165.570312 66.945312 165.261719 66.941406 C 165.050781 66.941406 164.839844 66.941406 164.628906 66.941406 C 164.070312 66.941406 163.511719 66.941406 162.953125 66.9375 C 162.382812 66.9375 161.8125 66.9375 161.242188 66.9375 C 160.125 66.933594 159.007812 66.933594 157.890625 66.929688 C 157.492188 66.128906 157.101562 65.332031 156.707031 64.53125 C 156.574219 64.257812 156.441406 63.984375 156.304688 63.714844 C 156.113281 63.324219 155.921875 62.933594 155.730469 62.539062 C 155.667969 62.417969 155.609375 62.296875 155.546875 62.171875 C 155.492188 62.058594 155.4375 61.945312 155.378906 61.828125 C 155.304688 61.675781 155.304688 61.675781 155.230469 61.523438 C 155.03125 61.03125 154.921875 60.671875 155.089844 60.160156 C 155.15625 60.03125 155.21875 59.902344 155.285156 59.769531 C 155.355469 59.621094 155.429688 59.476562 155.5 59.324219 C 155.617188 59.097656 155.617188 59.097656 155.734375 58.867188 C 155.839844 58.648438 155.839844 58.648438 155.953125 58.421875 C 156.179688 57.964844 156.40625 57.507812 156.636719 57.050781 C 156.957031 56.40625 157.28125 55.765625 157.609375 55.101562 C 145.265625 55.101562 132.921875 55.101562 120.203125 55.101562 C 120.847656 56.34375 121.488281 57.582031 122.148438 58.859375 C 122.71875 59.972656 123.289062 61.082031 123.855469 62.195312 C 123.980469 62.4375 124.101562 62.679688 124.226562 62.917969 C 124.34375 63.148438 124.460938 63.382812 124.578125 63.613281 C 124.835938 64.117188 125.097656 64.617188 125.378906 65.113281 C 125.515625 65.351562 125.515625 65.351562 125.652344 65.59375 C 125.773438 65.796875 125.773438 65.796875 125.894531 66.003906 C 126.074219 66.449219 126.058594 66.617188 125.90625 67.070312 C 125.777344 67.359375 125.640625 67.644531 125.496094 67.929688 C 125.414062 68.089844 125.332031 68.25 125.25 68.414062 C 125.164062 68.585938 125.078125 68.753906 124.992188 68.921875 C 124.90625 69.09375 124.820312 69.261719 124.734375 69.433594 C 124.519531 69.851562 124.308594 70.269531 124.097656 70.6875 C 125.289062 70.6875 126.484375 70.6875 127.710938 70.6875 C 127.84375 70.921875 127.972656 71.15625 128.105469 71.394531 C 128.964844 72.949219 129.828125 74.5 130.703125 76.042969 C 131.449219 77.359375 132.183594 78.679688 132.914062 80.003906 C 133.472656 81.003906 134.03125 82.003906 134.597656 83 C 135.523438 84.636719 136.433594 86.277344 137.34375 87.921875 C 137.699219 88.5625 138.054688 89.203125 138.410156 89.84375 C 138.523438 90.046875 138.632812 90.246094 138.746094 90.445312 C 138.820312 90.585938 138.898438 90.722656 138.976562 90.863281 C 139.585938 89.875 140.136719 88.867188 140.664062 87.835938 C 141.242188 86.710938 141.832031 85.589844 142.445312 84.480469 C 143.066406 83.347656 143.667969 82.203125 144.261719 81.054688 C 144.917969 79.777344 145.589844 78.511719 146.28125 77.253906 C 146.804688 76.300781 147.308594 75.339844 147.808594 74.375 C 148.582031 72.871094 149.386719 71.386719 150.199219 69.902344 C 150.53125 69.292969 150.859375 68.679688 151.183594 68.066406 C 151.351562 67.765625 151.351562 67.765625 151.492188 67.625 C 151.78125 67.613281 152.074219 67.609375 152.363281 67.609375 C 152.5 67.609375 152.5 67.609375 152.636719 67.609375 C 152.941406 67.609375 153.242188 67.609375 153.542969 67.613281 C 153.753906 67.613281 153.960938 67.613281 154.167969 67.613281 C 154.71875 67.613281 155.269531 67.613281 155.820312 67.617188 C 156.382812 67.617188 156.941406 67.617188 157.503906 67.617188 C 158.605469 67.621094 159.707031 67.621094 160.808594 67.625 C 160.914062 67.832031 160.914062 67.832031 161.019531 68.046875 C 161.480469 68.976562 161.949219 69.90625 162.425781 70.832031 C 162.503906 70.984375 162.582031 71.136719 162.660156 71.292969 C 162.820312 71.601562 162.980469 71.910156 163.140625 72.21875 C 163.21875 72.371094 163.292969 72.519531 163.371094 72.675781 C 163.476562 72.875 163.476562 72.875 163.582031 73.078125 C 163.789062 73.632812 163.8125 74.070312 163.613281 74.628906 C 163.558594 74.734375 163.503906 74.835938 163.449219 74.941406 C 163.386719 75.0625 163.324219 75.183594 163.261719 75.308594 C 163.195312 75.433594 163.128906 75.558594 163.058594 75.6875 C 162.515625 76.730469 162 77.78125 161.496094 78.84375 C 160.570312 80.792969 159.597656 82.71875 158.628906 84.644531 C 157.835938 86.222656 157.046875 87.804688 156.289062 89.402344 C 155.382812 91.308594 154.433594 93.195312 153.484375 95.082031 C 153.253906 95.539062 153.023438 95.996094 152.796875 96.453125 C 152.730469 96.585938 152.664062 96.71875 152.59375 96.851562 C 152.113281 97.8125 151.648438 98.78125 151.1875 99.75 C 150.410156 101.382812 149.609375 102.996094 148.800781 104.613281 C 148.65625 104.898438 148.511719 105.1875 148.367188 105.476562 C 147.992188 106.226562 147.621094 106.972656 147.246094 107.722656 C 146.792969 108.625 146.339844 109.527344 145.886719 110.429688 C 145.207031 111.792969 144.523438 113.15625 143.84375 114.519531 C 140.449219 114.5625 137.050781 114.609375 133.554688 114.65625 C 132.910156 113.460938 132.269531 112.269531 131.605469 111.039062 C 131.289062 110.449219 130.96875 109.855469 130.640625 109.246094 C 129.921875 107.90625 129.203125 106.566406 128.484375 105.226562 C 127.617188 103.601562 126.742188 101.980469 125.871094 100.359375 C 125.625 99.898438 125.375 99.441406 125.128906 98.984375 C 124.300781 97.441406 123.472656 95.902344 122.632812 94.367188 C 122.277344 93.714844 121.921875 93.0625 121.570312 92.40625 C 120.824219 91.023438 120.070312 89.644531 119.289062 88.28125 C 118.617188 87.097656 117.976562 85.898438 117.355469 84.6875 C 116.863281 83.734375 116.347656 82.800781 115.8125 81.871094 C 115.210938 80.808594 114.609375 79.746094 114.03125 78.667969 C 113.964844 78.550781 113.898438 78.425781 113.828125 78.300781 C 113.769531 78.191406 113.707031 78.078125 113.648438 77.960938 C 113.59375 77.863281 113.539062 77.761719 113.484375 77.660156 C 113.265625 76.984375 113.632812 76.410156 113.9375 75.808594 C 114.011719 75.664062 114.082031 75.519531 114.160156 75.371094 C 114.253906 75.1875 114.34375 75.003906 114.441406 74.816406 C 114.738281 74.234375 115.03125 73.652344 115.335938 73.050781 C 113.683594 73.007812 112.03125 72.960938 110.328125 72.914062 C 108.429688 69.136719 106.53125 65.359375 104.636719 61.582031 C 104.414062 61.136719 104.1875 60.691406 103.964844 60.246094 C 103.921875 60.15625 103.875 60.066406 103.832031 59.976562 C 103.109375 58.539062 102.386719 57.101562 101.664062 55.664062 C 100.917969 54.1875 100.179688 52.714844 99.441406 51.238281 C 99.027344 50.410156 98.609375 49.582031 98.191406 48.753906 C 97.796875 47.972656 97.40625 47.195312 97.019531 46.414062 C 96.875 46.128906 96.730469 45.839844 96.585938 45.554688 C 96.386719 45.164062 96.191406 44.773438 96 44.382812 C 95.941406 44.269531 95.882812 44.15625 95.820312 44.039062 C 95.769531 43.933594 95.71875 43.828125 95.664062 43.71875 C 95.621094 43.628906 95.574219 43.539062 95.527344 43.445312 C 94.925781 41.050781 97.265625 38.808594 98.371094 36.59375 Z M 98.371094 36.59375" style="stroke:none;fill-rule:nonzero;fill:rgb(97.647059%,96.862745%,97.254902%);fill-opacity:1;"/>
<path d="M 154.691406 74.164062 C 157.445312 74.164062 160.195312 74.164062 163.035156 74.164062 C 162.851562 74.710938 162.695312 75.15625 162.441406 75.65625 C 162.378906 75.78125 162.320312 75.902344 162.253906 76.03125 C 162.15625 76.226562 162.15625 76.226562 162.050781 76.429688 C 161.980469 76.570312 161.910156 76.710938 161.839844 76.851562 C 161.617188 77.300781 161.390625 77.746094 161.164062 78.191406 C 160.871094 78.773438 160.582031 79.355469 160.289062 79.933594 C 160.214844 80.082031 160.140625 80.226562 160.066406 80.375 C 159.585938 81.335938 159.117188 82.300781 158.65625 83.269531 C 157.75 85.183594 156.800781 87.070312 155.847656 88.957031 C 155.058594 90.535156 154.269531 92.113281 153.511719 93.707031 C 152.582031 95.671875 151.601562 97.609375 150.625 99.554688 C 150.382812 100.03125 150.144531 100.507812 149.90625 100.984375 C 149.828125 101.140625 149.75 101.296875 149.671875 101.457031 C 149.101562 102.597656 148.546875 103.746094 148.003906 104.898438 C 147.488281 105.996094 146.917969 107.042969 146.347656 108.117188 C 143.273438 108.117188 140.199219 108.117188 137.03125 108.117188 C 138.3125 105.546875 138.3125 105.546875 138.839844 104.519531 C 138.902344 104.402344 138.960938 104.285156 139.023438 104.164062 C 139.148438 103.917969 139.273438 103.675781 139.398438 103.429688 C 139.585938 103.066406 139.769531 102.703125 139.957031 102.335938 C 140.671875 100.933594 141.398438 99.539062 142.132812 98.144531 C 142.570312 97.320312 143 96.492188 143.425781 95.664062 C 144.03125 94.492188 144.640625 93.320312 145.257812 92.15625 C 145.765625 91.191406 146.265625 90.226562 146.765625 89.261719 C 147.378906 88.078125 147.992188 86.894531 148.617188 85.710938 C 149.277344 84.460938 149.929688 83.203125 150.582031 81.949219 C 151 81.148438 151.417969 80.347656 151.835938 79.542969 C 152.199219 78.851562 152.5625 78.15625 152.921875 77.460938 C 152.996094 77.316406 153.070312 77.171875 153.148438 77.023438 C 153.292969 76.75 153.433594 76.476562 153.578125 76.199219 C 153.640625 76.074219 153.707031 75.949219 153.773438 75.820312 C 153.828125 75.714844 153.886719 75.605469 153.945312 75.492188 C 154.183594 75.046875 154.4375 74.605469 154.691406 74.164062 Z M 154.691406 74.164062" style="stroke:none;fill-rule:nonzero;fill:rgb(67.450982%,21.176471%,41.176471%);fill-opacity:1;"/>
<path d="M 146.765625 37.152344 C 154.425781 37.152344 162.089844 37.152344 169.988281 37.152344 C 170.824219 38.742188 171.65625 40.328125 172.457031 41.9375 C 172.550781 42.125 172.644531 42.316406 172.742188 42.503906 C 172.933594 42.894531 173.128906 43.285156 173.324219 43.671875 C 173.574219 44.175781 173.824219 44.675781 174.074219 45.175781 C 174.269531 45.5625 174.460938 45.949219 174.65625 46.335938 C 174.746094 46.523438 174.839844 46.707031 174.933594 46.890625 C 175.0625 47.148438 175.1875 47.402344 175.316406 47.65625 C 175.386719 47.800781 175.460938 47.945312 175.535156 48.097656 C 175.6875 48.421875 175.6875 48.421875 175.6875 48.5625 C 167.980469 48.5625 160.269531 48.5625 152.328125 48.5625 C 151.410156 46.730469 150.492188 44.898438 149.546875 43.015625 C 149.253906 42.433594 148.964844 41.855469 148.664062 41.261719 C 148.3125 40.554688 148.3125 40.554688 148.148438 40.226562 C 148.03125 39.992188 147.914062 39.761719 147.800781 39.53125 C 147.625 39.183594 147.449219 38.832031 147.273438 38.484375 C 147.222656 38.378906 147.171875 38.277344 147.117188 38.171875 C 146.765625 37.460938 146.765625 37.460938 146.765625 37.152344 Z M 146.765625 37.152344" style="stroke:none;fill-rule:nonzero;fill:rgb(36.078432%,50.980395%,75.294119%);fill-opacity:1;"/>
<path d="M 122.984375 37.152344 C 130.648438 37.152344 138.3125 37.152344 146.207031 37.152344 C 147.585938 39.898438 147.585938 39.898438 148.988281 42.699219 C 149.425781 43.570312 149.425781 43.570312 149.867188 44.453125 C 150.222656 45.160156 150.222656 45.160156 150.386719 45.488281 C 150.503906 45.71875 150.617188 45.953125 150.734375 46.183594 C 150.910156 46.53125 151.085938 46.878906 151.257812 47.230469 C 151.335938 47.386719 151.335938 47.386719 151.417969 47.542969 C 151.769531 48.25 151.769531 48.25 151.769531 48.5625 C 144.105469 48.5625 136.441406 48.5625 128.546875 48.5625 C 127.628906 46.730469 126.710938 44.898438 125.765625 43.015625 C 125.476562 42.433594 125.183594 41.855469 124.886719 41.261719 C 124.53125 40.554688 124.53125 40.554688 124.367188 40.226562 C 124.253906 39.992188 124.136719 39.761719 124.019531 39.53125 C 123.84375 39.183594 123.667969 38.832031 123.496094 38.484375 C 123.441406 38.378906 123.390625 38.277344 123.335938 38.171875 C 122.984375 37.460938 122.984375 37.460938 122.984375 37.152344 Z M 122.984375 37.152344" style="stroke:none;fill-rule:nonzero;fill:rgb(26.274511%,63.529414%,61.960787%);fill-opacity:1;"/>
<path d="M 99.207031 37.152344 C 106.867188 37.152344 114.53125 37.152344 122.429688 37.152344 C 123.804688 39.898438 123.804688 39.898438 125.210938 42.699219 C 125.644531 43.570312 125.644531 43.570312 126.089844 44.453125 C 126.441406 45.160156 126.441406 45.160156 126.605469 45.488281 C 126.722656 45.71875 126.839844 45.953125 126.953125 46.183594 C 127.132812 46.53125 127.304688 46.878906 127.480469 47.230469 C 127.558594 47.386719 127.558594 47.386719 127.636719 47.542969 C 127.992188 48.25 127.992188 48.25 127.992188 48.5625 C 120.328125 48.5625 112.664062 48.5625 104.769531 48.5625 C 103.851562 46.730469 102.933594 44.898438 101.988281 43.015625 C 101.695312 42.433594 101.40625 41.855469 101.105469 41.261719 C 100.753906 40.554688 100.753906 40.554688 100.589844 40.226562 C 100.472656 39.992188 100.355469 39.761719 100.242188 39.53125 C 100.066406 39.183594 99.890625 38.832031 99.714844 38.484375 C 99.664062 38.378906 99.613281 38.277344 99.558594 38.171875 C 99.207031 37.460938 99.207031 37.460938 99.207031 37.152344 Z M 99.207031 37.152344" style="stroke:none;fill-rule:nonzero;fill:rgb(67.450982%,21.176471%,41.176471%);fill-opacity:1;"/>
<path d="M 123.492188 71.199219 C 123.933594 71.179688 124.378906 71.167969 124.824219 71.15625 C 125.035156 71.152344 125.242188 71.140625 125.453125 71.128906 C 126.085938 71.097656 126.675781 71.085938 127.296875 71.242188 C 127.734375 71.640625 127.910156 72.09375 128.128906 72.632812 C 128.273438 72.894531 128.417969 73.152344 128.570312 73.410156 C 128.722656 73.6875 128.878906 73.964844 129.035156 74.242188 C 129.207031 74.550781 129.378906 74.859375 129.550781 75.171875 C 129.636719 75.328125 129.726562 75.484375 129.816406 75.644531 C 130.226562 76.382812 130.636719 77.117188 131.050781 77.851562 C 131.210938 78.144531 131.375 78.433594 131.535156 78.722656 C 131.617188 78.867188 131.699219 79.007812 131.78125 79.15625 C 132.671875 80.75 133.566406 82.34375 134.457031 83.941406 C 134.539062 84.082031 134.617188 84.226562 134.699219 84.375 C 134.863281 84.664062 135.023438 84.949219 135.183594 85.238281 C 135.566406 85.921875 135.949219 86.605469 136.332031 87.289062 C 136.46875 87.53125 136.609375 87.777344 136.746094 88.023438 C 136.921875 88.335938 137.09375 88.644531 137.269531 88.957031 C 137.347656 89.09375 137.425781 89.234375 137.507812 89.375 C 137.574219 89.5 137.644531 89.621094 137.714844 89.746094 C 137.863281 90.027344 137.863281 90.027344 137.863281 90.167969 C 136.773438 90.203125 135.683594 90.238281 134.59375 90.277344 C 134.085938 90.292969 133.578125 90.308594 133.074219 90.328125 C 132.582031 90.34375 132.089844 90.359375 131.601562 90.375 C 131.328125 90.382812 131.050781 90.394531 130.777344 90.402344 C 129.617188 90.441406 128.457031 90.453125 127.296875 90.445312 C 126.566406 89.183594 125.863281 87.914062 125.183594 86.621094 C 124.925781 86.132812 124.667969 85.644531 124.40625 85.152344 C 124.355469 85.054688 124.304688 84.960938 124.253906 84.859375 C 123.835938 84.074219 123.414062 83.292969 122.984375 82.511719 C 122.300781 81.269531 121.632812 80.011719 120.96875 78.757812 C 120.273438 77.445312 119.578125 76.136719 118.863281 74.835938 C 118.796875 74.710938 118.730469 74.589844 118.664062 74.464844 C 118.425781 74.03125 118.191406 73.601562 117.953125 73.171875 C 117.808594 72.910156 117.667969 72.652344 117.527344 72.390625 C 117.449219 72.253906 117.375 72.117188 117.296875 71.976562 C 117.144531 71.660156 117.144531 71.660156 117.144531 71.382812 C 118.53125 71.339844 119.917969 71.300781 121.304688 71.269531 C 122.035156 71.253906 122.761719 71.230469 123.492188 71.199219 Z M 123.492188 71.199219" style="stroke:none;fill-rule:nonzero;fill:rgb(26.666668%,63.529414%,61.960787%);fill-opacity:1;"/>
<path d="M 105.046875 48.980469 C 108.808594 48.980469 112.570312 48.980469 116.449219 48.980469 C 116.953125 49.988281 117.457031 51 117.976562 52.039062 C 118.5 53.035156 118.5 53.035156 119.027344 54.03125 C 119.4375 54.804688 119.828125 55.59375 120.214844 56.378906 C 120.597656 57.152344 120.996094 57.917969 121.398438 58.679688 C 122.128906 60.066406 122.847656 61.457031 123.5625 62.851562 C 123.699219 63.121094 123.839844 63.390625 123.980469 63.664062 C 124.183594 64.058594 124.386719 64.457031 124.589844 64.851562 C 124.652344 64.972656 124.714844 65.09375 124.777344 65.21875 C 124.835938 65.332031 124.890625 65.441406 124.949219 65.554688 C 125 65.652344 125.050781 65.75 125.101562 65.851562 C 125.210938 66.09375 125.210938 66.09375 125.210938 66.375 C 121.402344 66.375 117.589844 66.375 113.667969 66.375 C 111.546875 62.132812 111.546875 62.132812 110.660156 60.359375 C 110.046875 59.132812 109.433594 57.90625 108.820312 56.683594 C 108.375 55.789062 107.925781 54.894531 107.480469 54.003906 C 107.242188 53.53125 107.007812 53.058594 106.769531 52.585938 C 106.546875 52.140625 106.324219 51.695312 106.101562 51.25 C 105.980469 51.007812 105.859375 50.769531 105.742188 50.527344 C 105.667969 50.382812 105.597656 50.238281 105.523438 50.089844 C 105.460938 49.96875 105.398438 49.84375 105.335938 49.714844 C 105.183594 49.398438 105.183594 49.398438 105.046875 48.980469 Z M 105.046875 48.980469" style="stroke:none;fill-rule:nonzero;fill:rgb(92.54902%,40.784314%,20%);fill-opacity:1;"/>
<path d="M 151.492188 68.597656 C 151.582031 68.597656 151.675781 68.597656 151.769531 68.597656 C 152.132812 69.320312 152.488281 70.042969 152.847656 70.769531 C 152.96875 71.015625 153.089844 71.261719 153.214844 71.507812 C 153.390625 71.859375 153.566406 72.214844 153.738281 72.566406 C 153.792969 72.675781 153.851562 72.785156 153.90625 72.898438 C 153.957031 73.003906 154.007812 73.105469 154.058594 73.210938 C 154.125 73.347656 154.125 73.347656 154.195312 73.484375 C 154.34375 73.984375 154.113281 74.382812 153.886719 74.824219 C 153.835938 74.925781 153.78125 75.023438 153.730469 75.125 C 153.675781 75.234375 153.617188 75.34375 153.5625 75.453125 C 153.503906 75.566406 153.445312 75.679688 153.382812 75.796875 C 153.199219 76.160156 153.007812 76.523438 152.820312 76.886719 C 152.699219 77.125 152.578125 77.359375 152.457031 77.597656 C 151.796875 78.882812 151.125 80.164062 150.453125 81.445312 C 149.960938 82.378906 149.472656 83.316406 148.988281 84.253906 C 148.382812 85.425781 147.773438 86.59375 147.15625 87.761719 C 146.648438 88.722656 146.152344 89.6875 145.652344 90.652344 C 145.039062 91.839844 144.421875 93.023438 143.800781 94.203125 C 143.140625 95.457031 142.484375 96.710938 141.832031 97.96875 C 141.484375 98.636719 141.132812 99.308594 140.785156 99.976562 C 140.367188 100.78125 139.945312 101.582031 139.527344 102.386719 C 138.605469 104.160156 137.679688 105.929688 136.75 107.699219 C 136.660156 107.699219 136.566406 107.699219 136.472656 107.699219 C 136.191406 107.160156 135.910156 106.621094 135.628906 106.082031 C 135.511719 105.859375 135.511719 105.859375 135.394531 105.628906 C 135.234375 105.320312 135.074219 105.011719 134.917969 104.699219 C 134.742188 104.363281 134.5625 104.054688 134.355469 103.738281 C 133.957031 103.09375 133.636719 102.566406 133.785156 101.789062 C 134.007812 101.273438 134.273438 100.800781 134.570312 100.324219 C 134.671875 100.148438 134.769531 99.96875 134.871094 99.792969 C 135.074219 99.4375 135.277344 99.082031 135.488281 98.730469 C 135.882812 98.0625 136.25 97.375 136.621094 96.691406 C 136.757812 96.445312 136.890625 96.199219 137.027344 95.953125 C 137.503906 95.074219 137.960938 94.1875 138.421875 93.296875 C 139.078125 92.023438 139.75 90.757812 140.441406 89.5 C 140.964844 88.546875 141.46875 87.585938 141.964844 86.617188 C 142.53125 85.527344 143.101562 84.441406 143.695312 83.367188 C 144.40625 82.074219 145.085938 80.765625 145.761719 79.457031 C 146.269531 78.472656 146.785156 77.5 147.320312 76.53125 C 148.117188 75.082031 148.875 73.617188 149.632812 72.148438 C 150.246094 70.960938 150.867188 69.78125 151.492188 68.597656 Z M 151.492188 68.597656" style="stroke:none;fill-rule:nonzero;fill:rgb(67.450982%,21.176471%,41.568628%);fill-opacity:1;"/>
<path d="M 128.546875 48.980469 C 136.210938 48.980469 143.875 48.980469 151.769531 48.980469 C 151.121094 50.929688 150.046875 52.707031 149.128906 54.546875 C 141.464844 54.546875 133.800781 54.546875 125.90625 54.546875 C 126.554688 52.597656 127.628906 50.816406 128.546875 48.980469 Z M 128.546875 48.980469" style="stroke:none;fill-rule:nonzero;fill:rgb(27.450982%,63.921571%,62.352943%);fill-opacity:1;"/>
<path d="M 152.328125 48.980469 C 159.988281 48.980469 167.652344 48.980469 175.550781 48.980469 C 175.160156 50.933594 173.9375 52.625 173.046875 54.40625 C 165.382812 54.40625 157.71875 54.40625 149.824219 54.40625 C 150.214844 52.453125 151.4375 50.761719 152.328125 48.980469 Z M 152.328125 48.980469" style="stroke:none;fill-rule:nonzero;fill:rgb(36.078432%,51.372552%,75.294119%);fill-opacity:1;"/>
<path d="M 116.585938 71.9375 C 116.679688 71.9375 116.769531 71.9375 116.867188 71.9375 C 116.933594 72.074219 116.933594 72.074219 117.003906 72.210938 C 117.878906 73.902344 118.757812 75.585938 119.675781 77.253906 C 120.300781 78.398438 120.914062 79.550781 121.523438 80.707031 C 122.1875 81.960938 122.855469 83.214844 123.539062 84.460938 C 124.199219 85.660156 124.847656 86.863281 125.488281 88.070312 C 125.597656 88.273438 125.707031 88.472656 125.8125 88.675781 C 125.964844 88.957031 126.117188 89.242188 126.265625 89.523438 C 126.3125 89.609375 126.359375 89.695312 126.40625 89.78125 C 126.832031 90.585938 126.832031 90.585938 126.878906 91.003906 C 126.734375 91.34375 126.585938 91.652344 126.410156 91.976562 C 125.867188 93.003906 125.386719 94.054688 124.925781 95.121094 C 124.878906 95.234375 124.828125 95.351562 124.777344 95.46875 C 124.730469 95.570312 124.6875 95.671875 124.644531 95.773438 C 124.515625 96.011719 124.515625 96.011719 124.234375 96.148438 C 124.183594 96.046875 124.128906 95.945312 124.070312 95.839844 C 123.085938 93.996094 122.097656 92.152344 121.097656 90.320312 C 120.589844 89.386719 120.082031 88.457031 119.578125 87.523438 C 118.933594 86.328125 118.285156 85.136719 117.632812 83.949219 C 117.265625 83.273438 116.902344 82.601562 116.539062 81.925781 C 116.460938 81.78125 116.382812 81.636719 116.300781 81.488281 C 116.144531 81.203125 115.992188 80.914062 115.835938 80.625 C 115.511719 80.023438 115.1875 79.425781 114.832031 78.839844 C 114.777344 78.75 114.722656 78.660156 114.667969 78.570312 C 114.53125 78.34375 114.390625 78.117188 114.25 77.894531 C 114.039062 77.398438 114.09375 77.195312 114.222656 76.667969 C 114.378906 76.285156 114.566406 75.921875 114.753906 75.554688 C 114.808594 75.449219 114.859375 75.34375 114.914062 75.238281 C 115.078125 74.910156 115.246094 74.582031 115.414062 74.25 C 115.527344 74.027344 115.640625 73.804688 115.753906 73.578125 C 116.03125 73.03125 116.308594 72.484375 116.585938 71.9375 Z M 116.585938 71.9375" style="stroke:none;fill-rule:nonzero;fill:rgb(26.666668%,63.529414%,61.960787%);fill-opacity:1;"/>
<path d="M 164.285156 54.964844 C 167.039062 54.964844 169.792969 54.964844 172.628906 54.964844 C 172.40625 55.632812 172.152344 56.234375 171.835938 56.863281 C 171.757812 57.019531 171.757812 57.019531 171.679688 57.175781 C 171.507812 57.515625 171.339844 57.855469 171.167969 58.191406 C 171.050781 58.429688 170.929688 58.664062 170.8125 58.898438 C 170.503906 59.519531 170.195312 60.136719 169.882812 60.757812 C 169.507812 61.5 169.136719 62.246094 168.765625 62.988281 C 168.199219 64.117188 167.632812 65.246094 167.066406 66.375 C 164.3125 66.375 161.558594 66.375 158.722656 66.375 C 158.945312 65.703125 159.199219 65.097656 159.519531 64.472656 C 159.59375 64.316406 159.59375 64.316406 159.675781 64.160156 C 159.84375 63.820312 160.015625 63.480469 160.183594 63.144531 C 160.304688 62.90625 160.421875 62.671875 160.539062 62.433594 C 160.847656 61.816406 161.160156 61.199219 161.46875 60.578125 C 161.84375 59.835938 162.214844 59.089844 162.585938 58.347656 C 163.152344 57.21875 163.71875 56.089844 164.285156 54.964844 Z M 164.285156 54.964844" style="stroke:none;fill-rule:nonzero;fill:rgb(92.54902%,40.784314%,20%);fill-opacity:1;"/>
<path d="M 127.15625 91.417969 C 127.476562 91.824219 127.730469 92.238281 127.972656 92.695312 C 128.046875 92.835938 128.125 92.980469 128.203125 93.128906 C 128.285156 93.28125 128.367188 93.433594 128.453125 93.59375 C 128.582031 93.839844 128.714844 94.082031 128.84375 94.328125 C 128.980469 94.582031 129.117188 94.835938 129.253906 95.09375 C 129.664062 95.863281 130.078125 96.632812 130.492188 97.402344 C 130.65625 97.703125 130.816406 98.003906 130.980469 98.308594 C 131.0625 98.457031 131.140625 98.605469 131.222656 98.757812 C 134.910156 105.605469 134.910156 105.605469 135.128906 106.019531 C 135.292969 106.324219 135.46875 106.625 135.644531 106.925781 C 135.734375 107.082031 135.828125 107.242188 135.921875 107.40625 C 136.050781 107.621094 136.050781 107.621094 136.179688 107.839844 C 136.378906 108.382812 136.292969 108.570312 136.054688 109.089844 C 135.984375 109.257812 135.914062 109.421875 135.835938 109.59375 C 135.753906 109.773438 135.667969 109.957031 135.582031 110.140625 C 135.539062 110.238281 135.492188 110.335938 135.445312 110.4375 C 135.351562 110.640625 135.253906 110.84375 135.160156 111.046875 C 135.011719 111.363281 134.867188 111.675781 134.722656 111.988281 C 134.628906 112.1875 134.535156 112.386719 134.445312 112.585938 C 134.378906 112.726562 134.378906 112.726562 134.3125 112.871094 C 134.003906 113.527344 134.003906 113.527344 133.691406 113.683594 C 133.613281 113.535156 133.613281 113.535156 133.53125 113.382812 C 132.324219 111.125 131.113281 108.871094 129.902344 106.617188 C 129.65625 106.167969 129.414062 105.714844 129.171875 105.265625 C 129.09375 105.117188 129.011719 104.964844 128.929688 104.8125 C 128.769531 104.511719 128.605469 104.210938 128.445312 103.910156 C 128.03125 103.140625 127.613281 102.367188 127.195312 101.597656 C 127.113281 101.441406 127.027344 101.28125 126.9375 101.121094 C 126.777344 100.824219 126.617188 100.527344 126.457031 100.230469 C 126.304688 99.953125 126.15625 99.671875 126.011719 99.386719 C 125.828125 99.046875 125.640625 98.734375 125.425781 98.414062 C 124.617188 97.121094 124.617188 97.121094 124.679688 96.410156 C 124.867188 95.65625 125.234375 94.992188 125.601562 94.316406 C 125.703125 94.109375 125.804688 93.90625 125.90625 93.699219 C 126.292969 92.921875 126.703125 92.160156 127.15625 91.417969 Z M 127.15625 91.417969" style="stroke:none;fill-rule:nonzero;fill:rgb(36.078432%,50.980395%,75.294119%);fill-opacity:1;"/>
<path d="M 104.488281 49.535156 C 104.582031 49.535156 104.671875 49.535156 104.769531 49.535156 C 105.882812 51.734375 106.992188 53.933594 108.101562 56.132812 C 108.613281 57.15625 109.128906 58.175781 109.648438 59.195312 C 110.097656 60.085938 110.546875 60.976562 110.996094 61.867188 C 111.230469 62.339844 111.46875 62.808594 111.710938 63.28125 C 111.933594 63.722656 112.15625 64.167969 112.378906 64.609375 C 112.5 64.851562 112.625 65.089844 112.746094 65.332031 C 112.851562 65.546875 112.851562 65.546875 112.960938 65.765625 C 113.023438 65.890625 113.085938 66.015625 113.152344 66.144531 C 113.363281 66.933594 112.816406 67.703125 112.46875 68.398438 C 112.417969 68.496094 112.371094 68.59375 112.320312 68.691406 C 112.21875 68.898438 112.117188 69.101562 112.015625 69.304688 C 111.859375 69.617188 111.703125 69.929688 111.550781 70.246094 C 111.449219 70.445312 111.351562 70.644531 111.25 70.839844 C 111.203125 70.933594 111.160156 71.03125 111.109375 71.125 C 110.777344 71.785156 110.777344 71.785156 110.46875 71.9375 C 109.359375 69.738281 108.25 67.535156 107.144531 65.335938 C 106.628906 64.3125 106.117188 63.289062 105.601562 62.269531 C 105.152344 61.378906 104.703125 60.488281 104.253906 59.59375 C 104.019531 59.125 103.78125 58.652344 103.542969 58.179688 C 103.316406 57.738281 103.09375 57.292969 102.871094 56.847656 C 102.753906 56.605469 102.628906 56.367188 102.507812 56.125 C 102.4375 55.984375 102.363281 55.839844 102.292969 55.691406 C 102.230469 55.566406 102.167969 55.441406 102.101562 55.3125 C 101.9375 54.816406 102.039062 54.476562 102.230469 54.003906 C 102.273438 53.921875 102.316406 53.839844 102.359375 53.753906 C 102.40625 53.660156 102.453125 53.5625 102.5 53.46875 C 102.554688 53.367188 102.601562 53.265625 102.65625 53.164062 C 102.707031 53.058594 102.761719 52.957031 102.8125 52.847656 C 102.980469 52.519531 103.148438 52.1875 103.316406 51.859375 C 103.429688 51.632812 103.542969 51.410156 103.65625 51.183594 C 103.933594 50.632812 104.210938 50.085938 104.488281 49.535156 Z M 104.488281 49.535156" style="stroke:none;fill-rule:nonzero;fill:rgb(92.54902%,40.784314%,20%);fill-opacity:1;"/>
<path d="M 138.28125 90.722656 C 138.703125 91.449219 138.703125 91.449219 138.683594 91.898438 C 138.519531 92.363281 138.304688 92.789062 138.070312 93.21875 C 137.996094 93.359375 137.996094 93.359375 137.921875 93.503906 C 137.757812 93.808594 137.59375 94.113281 137.429688 94.421875 C 137.316406 94.632812 137.203125 94.84375 137.089844 95.054688 C 136.800781 95.59375 136.515625 96.132812 136.222656 96.671875 C 135.914062 97.25 135.605469 97.828125 135.296875 98.40625 C 135.070312 98.824219 134.847656 99.242188 134.621094 99.664062 C 134.542969 99.8125 134.460938 99.960938 134.378906 100.113281 C 134.308594 100.242188 134.242188 100.371094 134.167969 100.503906 C 133.957031 100.90625 133.753906 101.308594 133.554688 101.714844 C 133.460938 101.714844 133.371094 101.714844 133.273438 101.714844 C 133.207031 101.589844 133.140625 101.460938 133.070312 101.332031 C 131.625 98.585938 130.171875 95.84375 128.660156 93.128906 C 128.589844 93 128.519531 92.871094 128.445312 92.738281 C 128.308594 92.492188 128.171875 92.246094 128.03125 92 C 127.972656 91.890625 127.910156 91.78125 127.847656 91.667969 C 127.769531 91.527344 127.769531 91.527344 127.6875 91.378906 C 127.574219 91.140625 127.574219 91.140625 127.574219 90.863281 C 131.144531 90.738281 134.710938 90.707031 138.28125 90.722656 Z M 138.28125 90.722656" style="stroke:none;fill-rule:nonzero;fill:rgb(36.078432%,51.372552%,75.294119%);fill-opacity:1;"/>
<path d="M 98.648438 37.429688 C 99.046875 37.917969 99.320312 38.453125 99.601562 39.011719 C 99.679688 39.164062 99.679688 39.164062 99.757812 39.324219 C 99.929688 39.660156 100.097656 39.996094 100.269531 40.335938 C 100.386719 40.570312 100.503906 40.804688 100.621094 41.039062 C 100.871094 41.53125 101.117188 42.023438 101.363281 42.515625 C 101.679688 43.148438 101.996094 43.777344 102.316406 44.410156 C 102.5625 44.894531 102.804688 45.378906 103.046875 45.863281 C 103.164062 46.097656 103.28125 46.328125 103.398438 46.5625 C 103.5625 46.886719 103.726562 47.210938 103.886719 47.535156 C 103.960938 47.679688 103.960938 47.679688 104.035156 47.828125 C 104.355469 48.480469 104.355469 48.480469 104.324219 48.871094 C 104.289062 48.953125 104.25 49.035156 104.210938 49.117188 C 104.175781 49.203125 104.136719 49.289062 104.101562 49.375 C 104.054688 49.464844 104.011719 49.550781 103.964844 49.640625 C 103.914062 49.742188 103.867188 49.84375 103.8125 49.945312 C 103.761719 50.050781 103.707031 50.160156 103.648438 50.269531 C 103.59375 50.378906 103.539062 50.488281 103.484375 50.605469 C 103.304688 50.957031 103.128906 51.308594 102.949219 51.65625 C 102.832031 51.898438 102.710938 52.136719 102.589844 52.375 C 102.296875 52.960938 102.003906 53.542969 101.707031 54.128906 C 101.3125 53.644531 101.035156 53.105469 100.757812 52.546875 C 100.703125 52.445312 100.652344 52.34375 100.597656 52.238281 C 100.429688 51.902344 100.257812 51.566406 100.089844 51.226562 C 100.03125 51.113281 99.972656 50.996094 99.914062 50.878906 C 99.605469 50.269531 99.300781 49.660156 98.996094 49.050781 C 98.679688 48.417969 98.359375 47.789062 98.039062 47.160156 C 97.796875 46.675781 97.550781 46.191406 97.308594 45.707031 C 97.191406 45.476562 97.074219 45.242188 96.957031 45.011719 C 96.792969 44.6875 96.632812 44.363281 96.46875 44.039062 C 96.394531 43.894531 96.394531 43.894531 96.320312 43.746094 C 96.125 43.347656 96.003906 43.0625 96.03125 42.617188 C 96.136719 42.332031 96.238281 42.058594 96.375 41.789062 C 96.445312 41.648438 96.445312 41.648438 96.519531 41.503906 C 96.570312 41.40625 96.621094 41.304688 96.671875 41.203125 C 96.722656 41.097656 96.773438 40.996094 96.828125 40.886719 C 96.9375 40.671875 97.046875 40.453125 97.160156 40.234375 C 97.328125 39.898438 97.496094 39.566406 97.664062 39.230469 C 97.769531 39.015625 97.878906 38.804688 97.984375 38.59375 C 98.058594 38.441406 98.058594 38.441406 98.136719 38.289062 C 98.492188 37.585938 98.492188 37.585938 98.648438 37.429688 Z M 98.648438 37.429688" style="stroke:none;fill-rule:nonzero;fill:rgb(67.843139%,21.568628%,41.568628%);fill-opacity:1;"/>
<path d="M 113.667969 66.929688 C 117.476562 66.929688 121.285156 66.929688 125.210938 66.929688 C 124.933594 67.753906 124.636719 68.542969 124.289062 69.339844 C 124.207031 69.550781 124.207031 69.550781 124.128906 69.765625 C 123.925781 70.207031 123.761719 70.496094 123.402344 70.824219 C 122.757812 70.996094 122.144531 71 121.484375 70.976562 C 121.183594 70.964844 120.878906 70.964844 120.578125 70.964844 C 120.480469 70.964844 120.378906 70.964844 120.277344 70.964844 C 120.132812 70.964844 120.132812 70.964844 119.980469 70.964844 C 119.78125 70.964844 119.582031 70.964844 119.382812 70.964844 C 119.238281 70.964844 119.238281 70.964844 119.085938 70.964844 C 118.882812 70.964844 118.679688 70.960938 118.480469 70.957031 C 118.179688 70.953125 117.878906 70.953125 117.582031 70.957031 C 117.320312 70.953125 117.320312 70.953125 117.054688 70.953125 C 116.402344 71.105469 116.402344 71.105469 115.890625 72.355469 C 114.285156 72.355469 112.679688 72.355469 111.023438 72.355469 C 111.203125 71.976562 111.382812 71.597656 111.5625 71.207031 C 111.617188 71.09375 111.667969 70.984375 111.722656 70.867188 C 112.347656 69.542969 113.011719 68.242188 113.667969 66.929688 Z M 113.667969 66.929688" style="stroke:none;fill-rule:nonzero;fill:rgb(92.54902%,40.784314%,20.392157%);fill-opacity:1;"/>
<path d="M 136.75 108.535156 C 139.824219 108.535156 142.902344 108.535156 146.070312 108.535156 C 145.847656 109.199219 145.59375 109.796875 145.28125 110.417969 C 145.234375 110.515625 145.183594 110.613281 145.132812 110.714844 C 145.03125 110.917969 144.929688 111.125 144.828125 111.328125 C 144.667969 111.640625 144.511719 111.953125 144.355469 112.265625 C 144.253906 112.464844 144.15625 112.664062 144.054688 112.863281 C 144.007812 112.957031 143.960938 113.050781 143.914062 113.148438 C 143.582031 113.804688 143.582031 113.804688 143.425781 113.960938 C 143.144531 113.972656 142.863281 113.976562 142.582031 113.976562 C 142.308594 113.976562 142.308594 113.976562 142.03125 113.976562 C 141.832031 113.976562 141.632812 113.976562 141.433594 113.976562 C 141.234375 113.976562 141.03125 113.972656 140.828125 113.972656 C 140.292969 113.972656 139.761719 113.972656 139.226562 113.96875 C 138.683594 113.96875 138.136719 113.96875 137.59375 113.96875 C 136.523438 113.964844 135.457031 113.964844 134.386719 113.960938 C 135.011719 112.089844 135.917969 110.324219 136.75 108.535156 Z M 136.75 108.535156" style="stroke:none;fill-rule:nonzero;fill:rgb(36.078432%,51.372552%,75.294119%);fill-opacity:1;"/>
<path d="M 117.003906 48.980469 C 120.628906 48.980469 124.253906 48.980469 127.992188 48.980469 C 127.679688 49.917969 127.679688 49.917969 127.464844 50.34375 C 127.417969 50.4375 127.367188 50.535156 127.320312 50.632812 C 127.242188 50.78125 127.242188 50.78125 127.167969 50.929688 C 127.121094 51.023438 127.074219 51.113281 127.027344 51.210938 C 126.855469 51.550781 126.683594 51.890625 126.511719 52.234375 C 125.9375 53.378906 125.9375 53.378906 125.347656 54.546875 C 123.511719 54.546875 121.675781 54.546875 119.785156 54.546875 C 119.179688 53.390625 119.179688 53.390625 118.976562 53.003906 C 118.648438 52.382812 118.324219 51.765625 117.992188 51.148438 C 117.929688 51.027344 117.867188 50.90625 117.800781 50.785156 C 117.675781 50.550781 117.554688 50.320312 117.429688 50.089844 C 117.375 49.984375 117.316406 49.878906 117.261719 49.769531 C 117.210938 49.679688 117.160156 49.585938 117.109375 49.492188 C 117.003906 49.257812 117.003906 49.257812 117.003906 48.980469 Z M 117.003906 48.980469" style="stroke:none;fill-rule:nonzero;fill:rgb(67.843139%,22.352941%,42.352942%);fill-opacity:1;"/>
<path d="M 152.046875 68.183594 C 154.847656 68.183594 157.648438 68.183594 160.53125 68.183594 C 163.035156 73.417969 163.035156 73.417969 163.035156 73.609375 C 160.28125 73.609375 157.527344 73.609375 154.691406 73.609375 C 154.324219 72.875 153.957031 72.140625 153.578125 71.382812 C 153.429688 71.089844 153.285156 70.800781 153.132812 70.5 C 153.070312 70.371094 153.003906 70.238281 152.9375 70.105469 C 152.804688 69.839844 152.671875 69.578125 152.539062 69.3125 C 152.441406 69.121094 152.441406 69.121094 152.34375 68.925781 C 152.257812 68.757812 152.257812 68.757812 152.171875 68.582031 C 152.046875 68.320312 152.046875 68.320312 152.046875 68.183594 Z M 152.046875 68.183594" style="stroke:none;fill-rule:nonzero;fill:rgb(67.450982%,21.568628%,41.568628%);fill-opacity:1;"/>
<path d="M 158.304688 54.964844 C 160.09375 54.964844 161.886719 54.964844 163.730469 54.964844 C 163.492188 55.554688 163.230469 56.117188 162.945312 56.683594 C 162.898438 56.78125 162.847656 56.882812 162.796875 56.988281 C 162.628906 57.316406 162.464844 57.648438 162.296875 57.980469 C 162.183594 58.210938 162.070312 58.4375 161.953125 58.667969 C 161.652344 59.273438 161.347656 59.875 161.046875 60.480469 C 160.738281 61.097656 160.429688 61.710938 160.121094 62.328125 C 159.515625 63.539062 158.910156 64.746094 158.304688 65.957031 C 157.9375 65.601562 157.730469 65.269531 157.503906 64.8125 C 157.429688 64.667969 157.359375 64.523438 157.285156 64.375 C 157.210938 64.226562 157.140625 64.074219 157.0625 63.921875 C 156.953125 63.699219 156.953125 63.699219 156.839844 63.476562 C 156.632812 63.050781 156.425781 62.625 156.21875 62.199219 C 156.160156 62.082031 156.101562 61.960938 156.039062 61.839844 C 155.984375 61.734375 155.933594 61.628906 155.878906 61.515625 C 155.835938 61.425781 155.789062 61.335938 155.742188 61.242188 C 155.53125 60.449219 155.949219 59.738281 156.292969 59.046875 C 156.367188 58.894531 156.367188 58.894531 156.441406 58.742188 C 156.59375 58.429688 156.75 58.113281 156.90625 57.796875 C 157.011719 57.585938 157.113281 57.371094 157.21875 57.160156 C 157.578125 56.425781 157.941406 55.695312 158.304688 54.964844 Z M 158.304688 54.964844" style="stroke:none;fill-rule:nonzero;fill:rgb(92.54902%,41.176471%,20.392157%);fill-opacity:1;"/>
</g>
</svg>