<?xml version="1.0" encoding="UTF-8"?>
<svg xmlns="http://www.w3.org/2000/svg" xmlns:xlink="http://www.w3.org/1999/xlink" width="271px" height="150px" viewBox="0 0 1458 809" version="1.1">
<g id="surface1">
<path style=" stroke:none;fill-rule:nonzero;fill:rgb(0%,0%,0%);fill-opacity:1;" d="M 0 0 C 481.140625 0 962.28125 0 1458 0 C 1458 266.96875 1458 533.941406 1458 809 C 976.859375 809 495.71875 809 0 809 C 0 542.03125 0 275.058594 0 0 Z M 0 0 "/>
<path style=" stroke:none;fill-rule:nonzero;fill:rgb(97.647059%,96.862745%,97.254902%);fill-opacity:1;" d="M 528.75 197.371094 C 656.953125 197.371094 785.160156 197.371094 917.25 197.371094 C 949.5 261.910156 949.5 261.910156 948.75 265.664062 C 948.167969 267.027344 947.535156 268.375 946.871094 269.699219 C 946.472656 270.5 946.074219 271.300781 945.667969 272.125 C 945.230469 272.992188 944.789062 273.863281 944.339844 274.757812 C 943.875 275.6875 943.410156 276.621094 942.945312 277.550781 C 941.6875 280.074219 940.421875 282.59375 939.15625 285.113281 C 937.835938 287.75 936.515625 290.390625 935.199219 293.027344 C 932.984375 297.457031 930.765625 301.882812 928.546875 306.304688 C 925.695312 311.992188 922.847656 317.679688 920.003906 323.367188 C 917.5625 328.253906 915.117188 333.140625 912.667969 338.027344 C 911.882812 339.597656 911.09375 341.171875 910.308594 342.746094 C 909.070312 345.214844 907.835938 347.679688 906.597656 350.144531 C 905.925781 351.488281 905.253906 352.828125 904.582031 354.171875 C 904.1875 354.960938 903.789062 355.753906 903.378906 356.566406 C 903.03125 357.257812 902.683594 357.953125 902.328125 358.664062 C 901.5 360.222656 901.5 360.222656 900.75 360.972656 C 899.164062 361.042969 897.574219 361.0625 895.984375 361.058594 C 895.238281 361.058594 895.238281 361.058594 894.476562 361.058594 C 892.824219 361.058594 891.171875 361.050781 889.519531 361.046875 C 888.378906 361.046875 887.234375 361.042969 886.09375 361.042969 C 883.082031 361.039062 880.070312 361.03125 877.058594 361.023438 C 873.984375 361.015625 870.914062 361.011719 867.84375 361.007812 C 861.8125 361 855.78125 360.988281 849.75 360.972656 C 847.621094 356.664062 845.5 352.347656 843.382812 348.035156 C 842.660156 346.566406 841.9375 345.097656 841.214844 343.632812 C 840.175781 341.523438 839.140625 339.414062 838.105469 337.300781 C 837.78125 336.648438 837.457031 335.992188 837.121094 335.320312 C 836.820312 334.703125 836.519531 334.089844 836.210938 333.453125 C 835.816406 332.648438 835.816406 332.648438 835.410156 331.824219 C 834.328125 329.167969 833.742188 327.230469 834.65625 324.46875 C 835.003906 323.769531 835.351562 323.070312 835.710938 322.351562 C 836.097656 321.5625 836.480469 320.777344 836.875 319.964844 C 837.496094 318.742188 837.496094 318.742188 838.125 317.492188 C 838.707031 316.308594 838.707031 316.308594 839.304688 315.097656 C 840.523438 312.625 841.761719 310.15625 843 307.691406 C 844.734375 304.222656 846.464844 300.757812 848.25 297.183594 C 781.671875 297.183594 715.09375 297.183594 646.5 297.183594 C 649.964844 303.871094 653.429688 310.558594 657 317.445312 C 660.074219 323.445312 663.140625 329.441406 666.203125 335.445312 C 666.863281 336.746094 667.527344 338.046875 668.191406 339.34375 C 668.828125 340.589844 669.464844 341.839844 670.097656 343.085938 C 671.488281 345.808594 672.898438 348.511719 674.414062 351.171875 C 675.148438 352.460938 675.148438 352.460938 675.894531 353.777344 C 676.535156 354.871094 676.535156 354.871094 677.191406 355.988281 C 678.167969 358.382812 678.070312 359.296875 677.25 361.722656 C 676.558594 363.289062 675.816406 364.832031 675.042969 366.359375 C 674.605469 367.226562 674.167969 368.09375 673.71875 368.988281 C 673.253906 369.898438 672.792969 370.804688 672.328125 371.714844 C 671.863281 372.636719 671.394531 373.558594 670.929688 374.484375 C 669.789062 376.734375 668.644531 378.984375 667.5 381.234375 C 673.933594 381.234375 680.371094 381.234375 687 381.234375 C 687.699219 382.5 688.398438 383.761719 689.117188 385.0625 C 693.757812 393.433594 698.40625 401.800781 703.125 410.128906 C 707.144531 417.222656 711.109375 424.347656 715.0625 431.480469 C 718.058594 436.886719 721.078125 442.273438 724.125 447.652344 C 729.121094 456.46875 734.039062 465.328125 738.949219 474.195312 C 740.863281 477.652344 742.785156 481.109375 744.703125 484.566406 C 745.304688 485.648438 745.90625 486.730469 746.503906 487.808594 C 746.914062 488.550781 747.328125 489.289062 747.75 490.054688 C 751.039062 484.734375 754 479.296875 756.84375 473.730469 C 759.972656 467.652344 763.15625 461.613281 766.453125 455.625 C 769.816406 449.511719 773.058594 443.347656 776.25 437.144531 C 779.792969 430.265625 783.417969 423.441406 787.148438 416.664062 C 789.96875 411.523438 792.683594 406.332031 795.375 401.121094 C 799.558594 393.019531 803.886719 385.003906 808.277344 377.007812 C 810.078125 373.71875 811.835938 370.414062 813.59375 367.101562 C 814.5 365.476562 814.5 365.476562 815.25 364.726562 C 816.816406 364.65625 818.382812 364.636719 819.949219 364.640625 C 820.683594 364.640625 820.683594 364.640625 821.433594 364.640625 C 823.0625 364.640625 824.6875 364.644531 826.316406 364.652344 C 827.441406 364.652344 828.566406 364.65625 829.691406 364.65625 C 832.660156 364.660156 835.628906 364.664062 838.59375 364.675781 C 841.621094 364.679688 844.648438 364.683594 847.675781 364.6875 C 853.617188 364.695312 859.558594 364.710938 865.5 364.726562 C 866.058594 365.847656 866.058594 365.847656 866.628906 366.992188 C 869.128906 372.015625 871.644531 377.03125 874.21875 382.015625 C 874.640625 382.835938 875.058594 383.65625 875.492188 384.503906 C 876.347656 386.171875 877.210938 387.835938 878.078125 389.5 C 878.488281 390.3125 878.902344 391.121094 879.328125 391.960938 C 879.882812 393.035156 879.882812 393.035156 880.449219 394.132812 C 881.582031 397.121094 881.703125 399.476562 880.625 402.5 C 880.332031 403.058594 880.039062 403.617188 879.734375 404.191406 C 879.398438 404.84375 879.066406 405.496094 878.71875 406.167969 C 878.363281 406.839844 878.007812 407.511719 877.640625 408.207031 C 874.710938 413.832031 871.914062 419.503906 869.195312 425.234375 C 864.203125 435.738281 858.976562 446.125 853.75 456.515625 C 849.46875 465.035156 845.210938 473.558594 841.125 482.171875 C 836.242188 492.460938 831.117188 502.625 826 512.800781 C 824.757812 515.269531 823.519531 517.742188 822.28125 520.210938 C 821.921875 520.921875 821.566406 521.632812 821.195312 522.363281 C 818.601562 527.542969 816.097656 532.757812 813.609375 537.988281 C 809.421875 546.78125 805.09375 555.5 800.734375 564.207031 C 799.953125 565.761719 799.175781 567.320312 798.398438 568.875 C 796.382812 572.910156 794.363281 576.941406 792.34375 580.976562 C 789.902344 585.847656 787.464844 590.722656 785.027344 595.59375 C 781.355469 602.941406 777.675781 610.285156 774 617.632812 C 755.683594 617.878906 737.371094 618.128906 718.5 618.382812 C 715.035156 611.941406 711.570312 605.503906 708 598.871094 C 706.28125 595.679688 704.566406 592.492188 702.796875 589.207031 C 698.910156 581.984375 695.035156 574.757812 691.164062 567.523438 C 686.476562 558.761719 681.769531 550.011719 677.058594 541.261719 C 675.730469 538.792969 674.402344 536.324219 673.074219 533.855469 C 668.609375 525.542969 664.125 517.234375 659.597656 508.953125 C 657.679688 505.4375 655.765625 501.914062 653.867188 498.386719 C 649.84375 490.921875 645.777344 483.488281 641.578125 476.121094 C 637.941406 469.742188 634.5 463.28125 631.140625 456.753906 C 628.484375 451.617188 625.695312 446.574219 622.828125 441.554688 C 619.574219 435.828125 616.339844 430.09375 613.21875 424.292969 C 612.855469 423.640625 612.496094 422.984375 612.121094 422.3125 C 611.796875 421.703125 611.472656 421.09375 611.140625 420.464844 C 610.851562 419.933594 610.5625 419.402344 610.265625 418.855469 C 609.085938 415.210938 611.070312 412.097656 612.707031 408.871094 C 613.101562 408.089844 613.492188 407.304688 613.898438 406.5 C 614.402344 405.515625 614.90625 404.53125 615.421875 403.515625 C 617.015625 400.371094 618.609375 397.230469 620.25 393.992188 C 611.339844 393.746094 602.429688 393.5 593.25 393.242188 C 583 372.878906 572.761719 352.511719 562.542969 332.132812 C 561.335938 329.726562 560.128906 327.320312 558.921875 324.917969 C 558.683594 324.4375 558.441406 323.957031 558.195312 323.464844 C 554.304688 315.710938 550.40625 307.960938 546.503906 300.210938 C 542.496094 292.261719 538.503906 284.304688 534.519531 276.34375 C 532.28125 271.875 530.039062 267.40625 527.78125 262.941406 C 525.660156 258.742188 523.554688 254.535156 521.453125 250.324219 C 520.679688 248.78125 519.902344 247.238281 519.121094 245.695312 C 518.054688 243.59375 517.003906 241.484375 515.957031 239.371094 C 515.640625 238.761719 515.328125 238.152344 515.003906 237.523438 C 514.726562 236.957031 514.449219 236.386719 514.160156 235.796875 C 513.917969 235.3125 513.671875 234.828125 513.421875 234.324219 C 510.179688 221.390625 522.789062 209.300781 528.75 197.371094 Z M 528.75 197.371094 "/>
<path style=" stroke:none;fill-rule:nonzero;fill:rgb(67.450982%,21.176471%,41.176471%);fill-opacity:1;" d="M 832.5 399.996094 C 847.351562 399.996094 862.199219 399.996094 877.5 399.996094 C 876.523438 402.933594 875.667969 405.347656 874.308594 408.042969 C 873.976562 408.710938 873.640625 409.375 873.296875 410.058594 C 872.757812 411.125 872.757812 411.125 872.207031 412.210938 C 871.828125 412.964844 871.449219 413.71875 871.0625 414.492188 C 869.851562 416.902344 868.636719 419.308594 867.421875 421.714844 C 865.84375 424.847656 864.265625 427.980469 862.691406 431.113281 C 862.296875 431.902344 861.902344 432.6875 861.496094 433.496094 C 858.902344 438.671875 856.378906 443.878906 853.894531 449.109375 C 849.007812 459.414062 843.875 469.589844 838.75 479.78125 C 834.476562 488.285156 830.226562 496.792969 826.148438 505.390625 C 821.121094 515.984375 815.835938 526.449219 810.570312 536.925781 C 809.277344 539.5 807.984375 542.074219 806.695312 544.648438 C 806.277344 545.484375 805.855469 546.324219 805.425781 547.183594 C 802.351562 553.339844 799.359375 559.527344 796.445312 565.757812 C 793.65625 571.671875 790.589844 577.3125 787.5 583.109375 C 770.917969 583.109375 754.335938 583.109375 737.25 583.109375 C 744.175781 569.25 744.175781 569.25 747.015625 563.699219 C 747.339844 563.070312 747.664062 562.4375 747.996094 561.785156 C 748.671875 560.46875 749.34375 559.152344 750.019531 557.835938 C 751.027344 555.871094 752.03125 553.902344 753.035156 551.9375 C 756.902344 544.378906 760.820312 536.847656 764.78125 529.335938 C 767.128906 524.886719 769.441406 520.414062 771.75 515.945312 C 775.019531 509.621094 778.308594 503.3125 781.628906 497.019531 C 784.363281 491.832031 787.054688 486.628906 789.75 481.421875 C 793.058594 475.03125 796.378906 468.644531 799.738281 462.277344 C 803.296875 455.523438 806.824219 448.75 810.351562 441.976562 C 812.601562 437.65625 814.855469 433.332031 817.113281 429.011719 C 819.0625 425.265625 821.015625 421.519531 822.960938 417.773438 C 823.363281 416.996094 823.769531 416.21875 824.1875 415.417969 C 824.957031 413.9375 825.726562 412.453125 826.492188 410.972656 C 826.84375 410.296875 827.195312 409.625 827.554688 408.933594 C 827.859375 408.347656 828.164062 407.761719 828.476562 407.15625 C 829.769531 404.746094 831.140625 402.375 832.5 399.996094 Z M 832.5 399.996094 "/>
<path style=" stroke:none;fill-rule:nonzero;fill:rgb(36.078432%,50.980395%,75.294119%);fill-opacity:1;" d="M 789.75 200.375 C 831.082031 200.375 872.414062 200.375 915 200.375 C 919.507812 208.949219 923.996094 217.511719 928.320312 226.175781 C 928.828125 227.199219 929.339844 228.21875 929.851562 229.238281 C 930.902344 231.339844 931.949219 233.445312 933 235.546875 C 934.34375 238.246094 935.695312 240.941406 937.042969 243.640625 C 938.089844 245.730469 939.132812 247.820312 940.179688 249.910156 C 940.675781 250.910156 941.175781 251.90625 941.671875 252.902344 C 942.363281 254.277344 943.046875 255.652344 943.734375 257.03125 C 944.125 257.8125 944.515625 258.59375 944.917969 259.402344 C 945.75 261.160156 945.75 261.160156 945.75 261.910156 C 904.171875 261.910156 862.589844 261.910156 819.75 261.910156 C 814.800781 252.035156 809.851562 242.160156 804.75 231.988281 C 803.183594 228.867188 801.617188 225.746094 800.003906 222.53125 C 798.101562 218.726562 798.101562 218.726562 797.210938 216.945312 C 796.585938 215.699219 795.960938 214.453125 795.335938 213.210938 C 794.386719 211.328125 793.445312 209.441406 792.503906 207.554688 C 792.222656 207 791.941406 206.441406 791.652344 205.867188 C 789.75 202.046875 789.75 202.046875 789.75 200.375 Z M 789.75 200.375 "/>
<path style=" stroke:none;fill-rule:nonzero;fill:rgb(26.274511%,63.529414%,61.960787%);fill-opacity:1;" d="M 661.5 200.375 C 702.832031 200.375 744.164062 200.375 786.75 200.375 C 794.175781 215.1875 794.175781 215.1875 801.75 230.296875 C 804.097656 234.980469 804.097656 234.980469 806.496094 239.753906 C 808.398438 243.558594 808.398438 243.558594 809.289062 245.339844 C 809.914062 246.585938 810.539062 247.832031 811.164062 249.074219 C 812.113281 250.960938 813.054688 252.84375 813.996094 254.730469 C 814.417969 255.566406 814.417969 255.566406 814.847656 256.417969 C 816.75 260.238281 816.75 260.238281 816.75 261.910156 C 775.417969 261.910156 734.085938 261.910156 691.5 261.910156 C 686.550781 252.035156 681.601562 242.160156 676.5 231.988281 C 674.933594 228.867188 673.367188 225.746094 671.753906 222.53125 C 669.851562 218.726562 669.851562 218.726562 668.960938 216.945312 C 668.335938 215.699219 667.710938 214.453125 667.085938 213.210938 C 666.136719 211.328125 665.195312 209.441406 664.253906 207.554688 C 663.972656 207 663.691406 206.441406 663.402344 205.867188 C 661.5 202.046875 661.5 202.046875 661.5 200.375 Z M 661.5 200.375 "/>
<path style=" stroke:none;fill-rule:nonzero;fill:rgb(67.450982%,21.176471%,41.176471%);fill-opacity:1;" d="M 533.25 200.375 C 574.582031 200.375 615.914062 200.375 658.5 200.375 C 665.925781 215.1875 665.925781 215.1875 673.5 230.296875 C 675.847656 234.980469 675.847656 234.980469 678.246094 239.753906 C 680.148438 243.558594 680.148438 243.558594 681.039062 245.339844 C 681.664062 246.585938 682.289062 247.832031 682.914062 249.074219 C 683.863281 250.960938 684.804688 252.84375 685.746094 254.730469 C 686.167969 255.566406 686.167969 255.566406 686.597656 256.417969 C 688.5 260.238281 688.5 260.238281 688.5 261.910156 C 647.167969 261.910156 605.835938 261.910156 563.25 261.910156 C 558.300781 252.035156 553.351562 242.160156 548.25 231.988281 C 546.683594 228.867188 545.117188 225.746094 543.503906 222.53125 C 541.601562 218.726562 541.601562 218.726562 540.710938 216.945312 C 540.085938 215.699219 539.460938 214.453125 538.835938 213.210938 C 537.886719 211.328125 536.945312 209.441406 536.003906 207.554688 C 535.722656 207 535.441406 206.441406 535.152344 205.867188 C 533.25 202.046875 533.25 202.046875 533.25 200.375 Z M 533.25 200.375 "/>
<path style=" stroke:none;fill-rule:nonzero;fill:rgb(26.666668%,63.529414%,61.960787%);fill-opacity:1;" d="M 664.234375 384 C 666.625 383.902344 669.019531 383.835938 671.414062 383.773438 C 672.550781 383.738281 673.683594 383.691406 674.816406 383.628906 C 678.226562 383.445312 681.410156 383.390625 684.75 384.238281 C 687.109375 386.378906 688.058594 388.828125 689.25 391.742188 C 690.023438 393.144531 690.8125 394.535156 691.617188 395.917969 C 692.453125 397.417969 693.289062 398.917969 694.125 400.417969 C 695.054688 402.085938 695.984375 403.75 696.914062 405.417969 C 697.386719 406.261719 697.855469 407.105469 698.339844 407.976562 C 700.554688 411.949219 702.777344 415.917969 705 419.882812 C 705.875 421.449219 706.75 423.011719 707.625 424.574219 C 708.058594 425.347656 708.492188 426.121094 708.9375 426.921875 C 713.75 435.519531 718.5625 444.117188 723.375 452.71875 C 723.808594 453.492188 724.242188 454.269531 724.691406 455.066406 C 725.558594 456.617188 726.421875 458.164062 727.289062 459.714844 C 729.351562 463.402344 731.417969 467.085938 733.488281 470.769531 C 734.234375 472.09375 734.976562 473.417969 735.722656 474.738281 C 736.664062 476.417969 737.605469 478.09375 738.550781 479.769531 C 738.96875 480.515625 739.390625 481.261719 739.824219 482.03125 C 740.195312 482.695312 740.570312 483.359375 740.953125 484.039062 C 741.75 485.550781 741.75 485.550781 741.75 486.300781 C 735.867188 486.5 729.988281 486.695312 724.105469 486.886719 C 721.375 486.976562 718.640625 487.066406 715.910156 487.160156 C 713.261719 487.25 710.617188 487.335938 707.972656 487.421875 C 706.492188 487.472656 705.011719 487.523438 703.527344 487.574219 C 697.265625 487.773438 691.015625 487.839844 684.75 487.800781 C 680.816406 480.996094 677.023438 474.140625 673.363281 467.183594 C 671.972656 464.542969 670.574219 461.902344 669.175781 459.261719 C 668.898438 458.738281 668.625 458.21875 668.339844 457.679688 C 666.09375 453.445312 663.808594 449.230469 661.5 445.023438 C 657.8125 438.304688 654.210938 431.539062 650.625 424.761719 C 646.882812 417.691406 643.121094 410.628906 639.28125 403.609375 C 638.921875 402.949219 638.5625 402.292969 638.191406 401.613281 C 636.917969 399.285156 635.644531 396.960938 634.363281 394.636719 C 633.59375 393.234375 632.828125 391.832031 632.0625 390.429688 C 631.65625 389.691406 631.25 388.949219 630.832031 388.1875 C 630 386.488281 630 386.488281 630 384.988281 C 637.484375 384.753906 644.964844 384.550781 652.449219 384.390625 C 656.378906 384.300781 660.304688 384.171875 664.234375 384 Z M 664.234375 384 "/>
<path style=" stroke:none;fill-rule:nonzero;fill:rgb(92.54902%,40.784314%,20%);fill-opacity:1;" d="M 564.75 264.164062 C 585.046875 264.164062 605.339844 264.164062 626.25 264.164062 C 628.972656 269.613281 631.695312 275.058594 634.5 280.671875 C 637.320312 286.039062 637.320312 286.039062 640.152344 291.398438 C 642.359375 295.589844 644.46875 299.828125 646.554688 304.078125 C 648.617188 308.25 650.769531 312.367188 652.9375 316.480469 C 656.882812 323.953125 660.761719 331.460938 664.617188 338.980469 C 665.363281 340.4375 666.113281 341.894531 666.863281 343.351562 C 667.960938 345.488281 669.058594 347.628906 670.15625 349.765625 C 670.492188 350.417969 670.828125 351.074219 671.175781 351.746094 C 671.484375 352.347656 671.789062 352.945312 672.105469 353.5625 C 672.375 354.089844 672.644531 354.617188 672.925781 355.160156 C 673.5 356.46875 673.5 356.46875 673.5 357.972656 C 652.957031 357.972656 632.414062 357.972656 611.25 357.972656 C 599.808594 335.101562 599.808594 335.101562 595.023438 325.535156 C 591.71875 318.925781 588.410156 312.3125 585.101562 305.703125 C 582.695312 300.886719 580.285156 296.074219 577.878906 291.257812 C 576.605469 288.707031 575.328125 286.15625 574.050781 283.609375 C 572.851562 281.210938 571.652344 278.8125 570.453125 276.410156 C 569.800781 275.109375 569.148438 273.808594 568.496094 272.503906 C 568.109375 271.730469 567.726562 270.957031 567.328125 270.160156 C 566.992188 269.488281 566.652344 268.816406 566.308594 268.121094 C 565.5 266.414062 565.5 266.414062 564.75 264.164062 Z M 564.75 264.164062 "/>
<path style=" stroke:none;fill-rule:nonzero;fill:rgb(67.450982%,21.176471%,41.568628%);fill-opacity:1;" d="M 815.25 369.980469 C 815.746094 369.980469 816.238281 369.980469 816.75 369.980469 C 818.699219 373.871094 820.632812 377.773438 822.558594 381.675781 C 823.214844 383.003906 823.875 384.332031 824.539062 385.65625 C 825.492188 387.558594 826.429688 389.46875 827.371094 391.378906 C 827.667969 391.96875 827.96875 392.5625 828.277344 393.171875 C 828.546875 393.726562 828.816406 394.285156 829.097656 394.855469 C 829.457031 395.585938 829.457031 395.585938 829.828125 396.332031 C 830.628906 399.015625 829.382812 401.167969 828.15625 403.550781 C 827.882812 404.089844 827.605469 404.628906 827.320312 405.183594 C 827.019531 405.765625 826.71875 406.34375 826.410156 406.941406 C 826.09375 407.554688 825.78125 408.164062 825.457031 408.796875 C 824.449219 410.757812 823.433594 412.71875 822.421875 414.679688 C 821.765625 415.953125 821.109375 417.230469 820.453125 418.503906 C 816.886719 425.445312 813.277344 432.359375 809.636719 439.261719 C 806.984375 444.296875 804.363281 449.347656 801.75 454.40625 C 798.480469 460.726562 795.191406 467.039062 791.871094 473.332031 C 789.136719 478.515625 786.445312 483.722656 783.75 488.925781 C 780.441406 495.320312 777.121094 501.703125 773.761719 508.070312 C 770.203125 514.824219 766.675781 521.597656 763.148438 528.371094 C 761.265625 531.984375 759.382812 535.597656 757.5 539.207031 C 755.242188 543.539062 752.980469 547.875 750.722656 552.207031 C 745.742188 561.761719 740.75 571.3125 735.75 580.859375 C 735.253906 580.859375 734.761719 580.859375 734.25 580.859375 C 732.734375 577.953125 731.21875 575.042969 729.703125 572.136719 C 729.070312 570.925781 729.070312 570.925781 728.425781 569.691406 C 727.5625 568.027344 726.707031 566.355469 725.867188 564.683594 C 724.90625 562.867188 723.945312 561.207031 722.835938 559.496094 C 720.675781 556.023438 718.949219 553.175781 719.746094 548.988281 C 720.957031 546.207031 722.394531 543.660156 723.984375 541.085938 C 724.53125 540.128906 725.070312 539.171875 725.609375 538.214844 C 726.695312 536.292969 727.800781 534.386719 728.929688 532.488281 C 731.074219 528.875 733.054688 525.175781 735.046875 521.480469 C 735.773438 520.15625 736.5 518.832031 737.230469 517.507812 C 739.8125 512.773438 742.28125 507.980469 744.75 503.1875 C 748.292969 496.304688 751.917969 489.484375 755.648438 482.703125 C 758.46875 477.5625 761.183594 472.375 763.875 467.164062 C 766.914062 461.277344 770.007812 455.425781 773.203125 449.621094 C 777.035156 442.652344 780.703125 435.605469 784.339844 428.535156 C 787.078125 423.238281 789.875 417.980469 792.75 412.753906 C 797.046875 404.945312 801.144531 397.039062 805.230469 389.117188 C 808.53125 382.714844 811.886719 376.34375 815.25 369.980469 Z M 815.25 369.980469 "/>
<path style=" stroke:none;fill-rule:nonzero;fill:rgb(27.450982%,63.921571%,62.352943%);fill-opacity:1;" d="M 691.5 264.164062 C 732.832031 264.164062 774.164062 264.164062 816.75 264.164062 C 813.25 274.671875 807.449219 284.273438 802.5 294.183594 C 761.167969 294.183594 719.835938 294.183594 677.25 294.183594 C 680.75 283.671875 686.550781 274.070312 691.5 264.164062 Z M 691.5 264.164062 "/>
<path style=" stroke:none;fill-rule:nonzero;fill:rgb(36.078432%,51.372552%,75.294119%);fill-opacity:1;" d="M 819.75 264.164062 C 861.082031 264.164062 902.414062 264.164062 945 264.164062 C 942.894531 274.699219 936.300781 283.820312 931.5 293.429688 C 890.167969 293.429688 848.835938 293.429688 806.25 293.429688 C 808.355469 282.894531 814.949219 273.773438 819.75 264.164062 Z M 819.75 264.164062 "/>
<path style=" stroke:none;fill-rule:nonzero;fill:rgb(26.666668%,63.529414%,61.960787%);fill-opacity:1;" d="M 627 387.988281 C 627.496094 387.988281 627.988281 387.988281 628.5 387.988281 C 628.871094 388.710938 628.871094 388.710938 629.253906 389.449219 C 633.957031 398.570312 638.707031 407.65625 643.648438 416.652344 C 647.03125 422.828125 650.332031 429.046875 653.625 435.269531 C 657.210938 442.042969 660.8125 448.808594 664.5 455.53125 C 668.042969 462 671.542969 468.488281 675.011719 474.996094 C 675.59375 476.082031 676.175781 477.171875 676.761719 478.257812 C 677.578125 479.78125 678.390625 481.308594 679.203125 482.835938 C 679.449219 483.292969 679.695312 483.75 679.949219 484.222656 C 682.242188 488.550781 682.242188 488.550781 682.5 490.804688 C 681.730469 492.644531 680.917969 494.3125 679.96875 496.054688 C 677.054688 501.609375 674.460938 507.265625 671.976562 513.027344 C 671.710938 513.640625 671.441406 514.253906 671.164062 514.886719 C 670.925781 515.433594 670.6875 515.984375 670.445312 516.546875 C 669.75 517.820312 669.75 517.820312 668.25 518.570312 C 667.957031 518.019531 667.664062 517.46875 667.359375 516.902344 C 662.046875 506.957031 656.722656 497.015625 651.316406 487.121094 C 648.574219 482.101562 645.84375 477.074219 643.125 472.042969 C 639.644531 465.605469 636.152344 459.179688 632.644531 452.761719 C 630.664062 449.128906 628.691406 445.496094 626.730469 441.859375 C 626.308594 441.078125 625.886719 440.296875 625.453125 439.492188 C 624.617188 437.945312 623.785156 436.398438 622.953125 434.847656 C 621.199219 431.59375 619.4375 428.363281 617.523438 425.203125 C 617.238281 424.722656 616.949219 424.242188 616.652344 423.746094 C 615.910156 422.527344 615.15625 421.320312 614.398438 420.113281 C 613.253906 417.433594 613.558594 416.332031 614.25 413.503906 C 615.09375 411.441406 616.09375 409.46875 617.113281 407.484375 C 617.394531 406.925781 617.675781 406.363281 617.964844 405.789062 C 618.863281 404.011719 619.765625 402.238281 620.671875 400.464844 C 621.285156 399.257812 621.894531 398.050781 622.503906 396.839844 C 623.996094 393.886719 625.496094 390.9375 627 387.988281 Z M 627 387.988281 "/>
<path style=" stroke:none;fill-rule:nonzero;fill:rgb(92.54902%,40.784314%,20%);fill-opacity:1;" d="M 884.25 296.433594 C 899.101562 296.433594 913.949219 296.433594 929.25 296.433594 C 928.042969 300.054688 926.671875 303.300781 924.964844 306.683594 C 924.546875 307.519531 924.546875 307.519531 924.121094 308.371094 C 923.207031 310.199219 922.289062 312.027344 921.367188 313.851562 C 920.730469 315.125 920.09375 316.398438 919.457031 317.667969 C 917.785156 321.007812 916.113281 324.347656 914.433594 327.683594 C 912.421875 331.695312 910.414062 335.707031 908.40625 339.71875 C 905.355469 345.804688 902.304688 351.886719 899.25 357.972656 C 884.398438 357.972656 869.550781 357.972656 854.25 357.972656 C 855.457031 354.351562 856.828125 351.101562 858.535156 347.722656 C 858.953125 346.886719 858.953125 346.886719 859.378906 346.035156 C 860.292969 344.207031 861.210938 342.378906 862.132812 340.550781 C 862.769531 339.28125 863.40625 338.007812 864.042969 336.734375 C 865.714844 333.394531 867.386719 330.058594 869.066406 326.71875 C 871.078125 322.710938 873.085938 318.699219 875.09375 314.6875 C 878.144531 308.601562 881.195312 302.515625 884.25 296.433594 Z M 884.25 296.433594 "/>
<path style=" stroke:none;fill-rule:nonzero;fill:rgb(36.078432%,50.980395%,75.294119%);fill-opacity:1;" d="M 684 493.054688 C 685.722656 495.242188 687.085938 497.476562 688.398438 499.933594 C 688.808594 500.703125 689.222656 501.472656 689.648438 502.265625 C 690.089844 503.09375 690.53125 503.925781 690.984375 504.78125 C 691.691406 506.105469 692.398438 507.425781 693.109375 508.75 C 693.839844 510.121094 694.574219 511.492188 695.304688 512.863281 C 697.527344 517.023438 699.765625 521.171875 702 525.324219 C 702.875 526.949219 703.75 528.578125 704.625 530.203125 C 705.058594 531.007812 705.492188 531.8125 705.9375 532.640625 C 725.808594 569.570312 725.808594 569.570312 726.996094 571.800781 C 727.890625 573.449219 728.824219 575.074219 729.777344 576.6875 C 730.273438 577.539062 730.765625 578.394531 731.277344 579.273438 C 731.964844 580.429688 731.964844 580.429688 732.671875 581.609375 C 733.75 584.535156 733.269531 585.550781 732 588.363281 C 731.609375 589.257812 731.222656 590.148438 730.820312 591.066406 C 730.363281 592.054688 729.90625 593.042969 729.445312 594.03125 C 729.203125 594.554688 728.957031 595.078125 728.707031 595.621094 C 728.191406 596.722656 727.679688 597.824219 727.164062 598.921875 C 726.371094 600.609375 725.589844 602.304688 724.808594 603.996094 C 724.308594 605.066406 723.804688 606.140625 723.304688 607.210938 C 722.953125 607.972656 722.953125 607.972656 722.597656 608.746094 C 720.921875 612.292969 720.921875 612.292969 719.25 613.128906 C 718.820312 612.328125 718.820312 612.328125 718.382812 611.507812 C 711.871094 599.335938 705.347656 587.171875 698.800781 575.019531 C 697.492188 572.589844 696.183594 570.160156 694.878906 567.730469 C 694.445312 566.925781 694.011719 566.117188 693.5625 565.289062 C 692.691406 563.667969 691.820312 562.046875 690.945312 560.425781 C 688.710938 556.261719 686.464844 552.105469 684.21875 547.949219 C 683.757812 547.097656 683.296875 546.246094 682.820312 545.371094 C 681.957031 543.773438 681.09375 542.175781 680.226562 540.582031 C 679.414062 539.074219 678.613281 537.558594 677.832031 536.035156 C 676.835938 534.203125 675.816406 532.515625 674.675781 530.78125 C 670.304688 523.796875 670.304688 523.796875 670.640625 519.96875 C 671.652344 515.914062 673.625 512.324219 675.609375 508.671875 C 676.164062 507.570312 676.714844 506.460938 677.261719 505.355469 C 679.351562 501.160156 681.550781 497.050781 684 493.054688 Z M 684 493.054688 "/>
<path style=" stroke:none;fill-rule:nonzero;fill:rgb(92.54902%,40.784314%,20%);fill-opacity:1;" d="M 561.75 267.164062 C 562.246094 267.164062 562.738281 267.164062 563.25 267.164062 C 569.257812 279.015625 575.25 290.875 581.222656 302.746094 C 583.996094 308.253906 586.773438 313.761719 589.566406 319.265625 C 592 324.058594 594.421875 328.859375 596.832031 333.667969 C 598.109375 336.210938 599.390625 338.753906 600.6875 341.289062 C 601.902344 343.675781 603.109375 346.070312 604.300781 348.46875 C 604.953125 349.769531 605.617188 351.058594 606.285156 352.351562 C 606.859375 353.515625 606.859375 353.515625 607.445312 354.703125 C 607.78125 355.375 608.121094 356.046875 608.46875 356.738281 C 609.605469 360.988281 606.65625 365.140625 604.78125 368.890625 C 604.519531 369.414062 604.261719 369.941406 603.992188 370.480469 C 603.441406 371.582031 602.894531 372.683594 602.34375 373.78125 C 601.496094 375.472656 600.660156 377.164062 599.824219 378.855469 C 599.289062 379.929688 598.753906 381 598.21875 382.070312 C 597.96875 382.578125 597.71875 383.085938 597.460938 383.609375 C 595.671875 387.152344 595.671875 387.152344 594 387.988281 C 588.007812 376.125 582.03125 364.25 576.066406 352.371094 C 573.296875 346.855469 570.523438 341.34375 567.738281 335.832031 C 565.316406 331.03125 562.898438 326.226562 560.488281 321.417969 C 559.210938 318.871094 557.933594 316.328125 556.644531 313.785156 C 555.429688 311.394531 554.226562 309 553.03125 306.597656 C 552.382812 305.300781 551.722656 304.003906 551.058594 302.710938 C 550.675781 301.933594 550.292969 301.160156 549.898438 300.359375 C 549.558594 299.6875 549.21875 299.015625 548.871094 298.324219 C 547.992188 295.648438 548.542969 293.808594 549.574219 291.261719 C 549.800781 290.816406 550.023438 290.371094 550.253906 289.914062 C 550.511719 289.402344 550.765625 288.890625 551.027344 288.367188 C 551.304688 287.828125 551.578125 287.289062 551.863281 286.734375 C 552.144531 286.171875 552.425781 285.609375 552.714844 285.03125 C 553.613281 283.25 554.519531 281.46875 555.421875 279.6875 C 556.03125 278.476562 556.644531 277.265625 557.253906 276.050781 C 558.75 273.085938 560.246094 270.125 561.75 267.164062 Z M 561.75 267.164062 "/>
<path style=" stroke:none;fill-rule:nonzero;fill:rgb(36.078432%,51.372552%,75.294119%);fill-opacity:1;" d="M 744 489.300781 C 746.273438 493.214844 746.273438 493.214844 746.179688 495.636719 C 745.292969 498.140625 744.128906 500.441406 742.867188 502.765625 C 742.464844 503.523438 742.464844 503.523438 742.054688 504.296875 C 741.175781 505.945312 740.292969 507.589844 739.40625 509.238281 C 738.796875 510.378906 738.1875 511.519531 737.578125 512.664062 C 736.023438 515.570312 734.46875 518.480469 732.90625 521.382812 C 731.234375 524.5 729.566406 527.613281 727.898438 530.730469 C 726.691406 532.992188 725.476562 535.253906 724.265625 537.511719 C 723.832031 538.316406 723.402344 539.121094 722.957031 539.945312 C 722.582031 540.640625 722.207031 541.335938 721.824219 542.050781 C 720.683594 544.214844 719.585938 546.398438 718.5 548.589844 C 718.003906 548.589844 717.511719 548.589844 717 548.589844 C 716.636719 547.902344 716.277344 547.214844 715.902344 546.507812 C 708.09375 531.699219 700.257812 516.910156 692.117188 502.277344 C 691.730469 501.578125 691.34375 500.882812 690.945312 500.164062 C 690.207031 498.832031 689.46875 497.507812 688.722656 496.179688 C 688.398438 495.59375 688.074219 495.007812 687.738281 494.402344 C 687.304688 493.628906 687.304688 493.628906 686.863281 492.839844 C 686.25 491.554688 686.25 491.554688 686.25 490.054688 C 705.503906 489.386719 724.734375 489.207031 744 489.300781 Z M 744 489.300781 "/>
<path style=" stroke:none;fill-rule:nonzero;fill:rgb(67.843139%,21.568628%,41.568628%);fill-opacity:1;" d="M 530.25 201.875 C 532.394531 204.496094 533.875 207.394531 535.382812 210.40625 C 535.804688 211.234375 535.804688 211.234375 536.230469 212.078125 C 537.152344 213.898438 538.066406 215.71875 538.980469 217.539062 C 539.617188 218.808594 540.253906 220.074219 540.894531 221.34375 C 542.226562 223.996094 543.558594 226.652344 544.886719 229.304688 C 546.59375 232.710938 548.3125 236.113281 550.03125 239.511719 C 551.351562 242.125 552.660156 244.742188 553.972656 247.359375 C 554.601562 248.617188 555.234375 249.871094 555.871094 251.125 C 556.757812 252.871094 557.632812 254.625 558.503906 256.382812 C 558.902344 257.160156 558.902344 257.160156 559.308594 257.953125 C 561.035156 261.46875 561.035156 261.46875 560.863281 263.582031 C 560.660156 264.023438 560.457031 264.460938 560.25 264.914062 C 560.050781 265.371094 559.851562 265.828125 559.648438 266.300781 C 559.410156 266.773438 559.171875 267.246094 558.925781 267.734375 C 558.65625 268.273438 558.386719 268.816406 558.105469 269.371094 C 557.816406 269.949219 557.523438 270.523438 557.222656 271.117188 C 556.925781 271.710938 556.625 272.308594 556.320312 272.921875 C 555.367188 274.820312 554.410156 276.714844 553.453125 278.609375 C 552.804688 279.898438 552.160156 281.183594 551.511719 282.472656 C 549.929688 285.628906 548.339844 288.78125 546.75 291.929688 C 544.609375 289.3125 543.128906 286.417969 541.617188 283.410156 C 541.335938 282.859375 541.058594 282.308594 540.769531 281.742188 C 539.847656 279.925781 538.933594 278.109375 538.019531 276.289062 C 537.707031 275.667969 537.394531 275.046875 537.070312 274.40625 C 535.414062 271.121094 533.761719 267.832031 532.113281 264.539062 C 530.40625 261.140625 528.691406 257.746094 526.96875 254.355469 C 525.648438 251.746094 524.335938 249.132812 523.027344 246.515625 C 522.398438 245.261719 521.765625 244.011719 521.128906 242.761719 C 520.242188 241.015625 519.367188 239.261719 518.496094 237.507812 C 518.097656 236.734375 518.097656 236.734375 517.691406 235.945312 C 516.636719 233.796875 515.976562 232.253906 516.140625 229.839844 C 516.691406 228.300781 517.257812 226.84375 517.992188 225.382812 C 518.371094 224.621094 518.371094 224.621094 518.757812 223.84375 C 519.03125 223.308594 519.304688 222.773438 519.585938 222.21875 C 519.867188 221.660156 520.144531 221.101562 520.433594 220.523438 C 521.027344 219.347656 521.617188 218.171875 522.210938 216.996094 C 523.125 215.195312 524.03125 213.386719 524.9375 211.578125 C 525.511719 210.433594 526.089844 209.292969 526.664062 208.148438 C 527.074219 207.335938 527.074219 207.335938 527.492188 206.503906 C 529.410156 202.714844 529.410156 202.714844 530.25 201.875 Z M 530.25 201.875 "/>
<path style=" stroke:none;fill-rule:nonzero;fill:rgb(92.54902%,40.784314%,20.392157%);fill-opacity:1;" d="M 611.25 360.972656 C 631.792969 360.972656 652.335938 360.972656 673.5 360.972656 C 672.019531 365.417969 670.40625 369.679688 668.53125 373.964844 C 668.101562 375.105469 668.101562 375.105469 667.664062 376.269531 C 666.582031 378.660156 665.695312 380.214844 663.75 381.984375 C 660.28125 382.902344 656.964844 382.921875 653.410156 382.796875 C 651.777344 382.738281 650.152344 382.726562 648.519531 382.730469 C 647.988281 382.730469 647.453125 382.730469 646.90625 382.730469 C 646.109375 382.734375 646.109375 382.734375 645.296875 382.738281 C 644.222656 382.738281 643.152344 382.738281 642.082031 382.738281 C 641.285156 382.742188 641.285156 382.742188 640.476562 382.742188 C 639.382812 382.738281 638.289062 382.722656 637.199219 382.699219 C 635.582031 382.664062 633.972656 382.671875 632.359375 382.691406 C 630.945312 382.675781 630.945312 382.675781 629.507812 382.664062 C 625.992188 383.503906 625.992188 383.503906 623.25 390.242188 C 614.585938 390.242188 605.925781 390.242188 597 390.242188 C 597.960938 388.199219 598.917969 386.15625 599.90625 384.050781 C 600.191406 383.441406 600.472656 382.835938 600.765625 382.207031 C 604.136719 375.0625 607.714844 368.046875 611.25 360.972656 Z M 611.25 360.972656 "/>
<path style=" stroke:none;fill-rule:nonzero;fill:rgb(36.078432%,51.372552%,75.294119%);fill-opacity:1;" d="M 735.75 585.363281 C 752.332031 585.363281 768.914062 585.363281 786 585.363281 C 784.804688 588.953125 783.449219 592.179688 781.753906 595.53125 C 781.492188 596.054688 781.230469 596.582031 780.960938 597.121094 C 780.40625 598.222656 779.855469 599.324219 779.300781 600.421875 C 778.449219 602.113281 777.605469 603.804688 776.757812 605.496094 C 776.222656 606.570312 775.683594 607.640625 775.144531 608.710938 C 774.890625 609.21875 774.636719 609.726562 774.375 610.25 C 772.585938 613.792969 772.585938 613.792969 771.75 614.628906 C 770.230469 614.699219 768.710938 614.71875 767.191406 614.714844 C 765.726562 614.714844 765.726562 614.714844 764.230469 614.714844 C 763.160156 614.710938 762.085938 614.707031 761.011719 614.703125 C 759.921875 614.703125 758.828125 614.699219 757.738281 614.699219 C 754.859375 614.695312 751.980469 614.691406 749.101562 614.679688 C 746.164062 614.671875 743.226562 614.671875 740.292969 614.667969 C 734.527344 614.660156 728.765625 614.644531 723 614.628906 C 726.363281 604.535156 731.253906 595.007812 735.75 585.363281 Z M 735.75 585.363281 "/>
<path style=" stroke:none;fill-rule:nonzero;fill:rgb(67.843139%,22.352941%,42.352942%);fill-opacity:1;" d="M 629.25 264.164062 C 648.800781 264.164062 668.355469 264.164062 688.5 264.164062 C 686.8125 269.230469 686.8125 269.230469 685.660156 271.519531 C 685.402344 272.035156 685.140625 272.554688 684.875 273.085938 C 684.472656 273.878906 684.472656 273.878906 684.0625 274.6875 C 683.816406 275.183594 683.566406 275.679688 683.308594 276.195312 C 682.386719 278.03125 681.457031 279.867188 680.53125 281.707031 C 677.421875 287.882812 677.421875 287.882812 674.25 294.183594 C 664.351562 294.183594 654.449219 294.183594 644.25 294.183594 C 640.96875 287.945312 640.96875 287.945312 639.875 285.859375 C 638.121094 282.519531 636.359375 279.183594 634.582031 275.855469 C 634.238281 275.207031 633.894531 274.558594 633.539062 273.894531 C 632.875 272.644531 632.207031 271.394531 631.535156 270.144531 C 631.238281 269.578125 630.9375 269.011719 630.625 268.429688 C 630.359375 267.929688 630.09375 267.429688 629.820312 266.917969 C 629.25 265.664062 629.25 265.664062 629.25 264.164062 Z M 629.25 264.164062 "/>
<path style=" stroke:none;fill-rule:nonzero;fill:rgb(67.450982%,21.568628%,41.568628%);fill-opacity:1;" d="M 818.25 367.726562 C 833.347656 367.726562 848.445312 367.726562 864 367.726562 C 877.5 395.972656 877.5 395.972656 877.5 396.996094 C 862.648438 396.996094 847.800781 396.996094 832.5 396.996094 C 830.519531 393.03125 828.539062 389.070312 826.5 384.988281 C 825.710938 383.417969 824.921875 381.847656 824.109375 380.230469 C 823.757812 379.527344 823.402344 378.824219 823.039062 378.101562 C 822.324219 376.675781 821.609375 375.25 820.890625 373.828125 C 820.371094 372.792969 820.371094 372.792969 819.84375 371.742188 C 819.382812 370.824219 819.382812 370.824219 818.914062 369.886719 C 818.25 368.476562 818.25 368.476562 818.25 367.726562 Z M 818.25 367.726562 "/>
<path style=" stroke:none;fill-rule:nonzero;fill:rgb(92.54902%,41.176471%,20.392157%);fill-opacity:1;" d="M 852 296.433594 C 861.652344 296.433594 871.304688 296.433594 881.25 296.433594 C 879.976562 299.617188 878.566406 302.652344 877.03125 305.710938 C 876.761719 306.25 876.492188 306.792969 876.210938 307.351562 C 875.320312 309.136719 874.425781 310.917969 873.53125 312.699219 C 872.914062 313.941406 872.292969 315.179688 871.671875 316.417969 C 870.042969 319.675781 868.414062 322.929688 866.78125 326.1875 C 865.117188 329.511719 863.453125 332.835938 861.789062 336.164062 C 858.527344 342.683594 855.265625 349.203125 852 355.71875 C 850.007812 353.816406 848.894531 352.027344 847.667969 349.546875 C 847.28125 348.769531 846.894531 347.996094 846.5 347.199219 C 846.101562 346.386719 845.707031 345.578125 845.296875 344.746094 C 844.707031 343.554688 844.707031 343.554688 844.101562 342.34375 C 842.972656 340.054688 841.859375 337.757812 840.75 335.457031 C 840.425781 334.820312 840.105469 334.183594 839.769531 333.527344 C 839.488281 332.953125 839.207031 332.375 838.917969 331.78125 C 838.671875 331.289062 838.425781 330.800781 838.171875 330.292969 C 837.039062 326.027344 839.28125 322.1875 841.144531 318.449219 C 841.539062 317.644531 841.539062 317.644531 841.9375 316.824219 C 842.769531 315.121094 843.613281 313.421875 844.453125 311.722656 C 845.015625 310.578125 845.578125 309.429688 846.140625 308.28125 C 848.078125 304.324219 850.03125 300.375 852 296.433594 Z M 852 296.433594 "/>
</g>
</svg>
